<svg width="512" height="512" viewBox="0 0 512 512" fill="none" xmlns="http://www.w3.org/2000/svg">
<g clip-path="url(#clip0_301_101)">
<g clip-path="url(#clip1_301_101)">
<rect x="50" y="50" width="412" height="412" rx="94.2958" fill="url(#paint0_linear_301_101)"/>
<mask id="mask0_301_101" style="mask-type:alpha" maskUnits="userSpaceOnUse" x="50" y="50" width="412" height="412">
<rect x="50" y="50" width="412" height="412" rx="94.2958" fill="url(#paint1_linear_301_101)"/>
</mask>
<g mask="url(#mask0_301_101)">
<g opacity="0.9" filter="url(#filter0_f_301_101)">
<rect x="50" y="50" width="412" height="412" rx="94.2958" fill="url(#paint2_linear_301_101)"/>
<rect x="52.06" y="52.06" width="407.88" height="407.88" rx="92.2358" stroke="url(#paint3_linear_301_101)" stroke-width="4.12"/>
</g>
<g filter="url(#filter1_f_301_101)">
<circle cx="295.14" cy="328.1" r="224.54" fill="url(#paint4_radial_301_101)"/>
</g>
<g filter="url(#filter2_f_301_101)">
<path fill-rule="evenodd" clip-rule="evenodd" d="M280.065 367.588C284.885 372.821 289.626 378.401 294.543 384.187L294.543 384.187C334.38 431.069 385.748 491.522 584.11 491.522V695.678L113.86 688.6V492.9V455.82V410.5L114.012 410.436V311.508C111.923 258.219 143.164 139.731 284.849 92.0847C284.849 100.597 284.759 107.973 284.68 114.416C284.399 137.512 284.263 148.609 288.944 157.03C293.273 164.818 301.721 170.316 317.984 180.899C324.162 184.92 331.468 189.674 340.104 195.567C345.83 199.474 349.706 205.711 349.951 212.639C350.246 220.981 349.885 229.443 349.548 235.596C349.249 241.051 351.279 246.284 355.142 250.147L382.006 277.011C384.95 279.955 386.256 284.179 385.178 288.202C377.386 317.297 353.695 365.606 308.359 367.931C298.535 368.435 289.197 368.088 280.065 367.588ZM328.469 233.144C329.956 243.275 325.686 244.709 318.932 245.7C312.178 246.691 305.498 246.863 304.011 236.733C302.525 226.602 306.795 217.586 313.549 216.595C320.303 215.604 326.983 223.013 328.469 233.144Z" fill="url(#paint5_linear_301_101)"/>
</g>
<path d="M122.1 439.34V672.12L592.351 679.198V475.042C268.361 475.042 336.514 313.768 206.56 313.768C155.061 313.768 126.22 280.72 122.1 439.34Z" fill="white"/>
<path d="M122.1 439.34V672.12L592.351 679.198V475.042C268.361 475.042 336.514 313.768 206.56 313.768C155.061 313.768 126.22 280.72 122.1 439.34Z" fill="url(#paint6_linear_301_101)"/>
<path d="M375.48 476.42C307.912 431.924 285.527 357.627 282.78 326.04L122.1 394.02V476.42H375.48Z" fill="white"/>
<path d="M375.48 476.42C307.912 431.924 285.527 357.627 282.78 326.04L122.1 394.02V476.42H375.48Z" fill="url(#paint7_linear_301_101)"/>
<g filter="url(#filter3_f_301_101)">
<path d="M123.748 395.112L281.359 328.431C284.883 360.75 306.979 430.7 370.114 474.772H123.748V395.112Z" stroke="url(#paint8_radial_301_101)" stroke-width="3.296"/>
</g>
<path fill-rule="evenodd" clip-rule="evenodd" d="M122.252 429.816V295.028C120.163 241.739 151.404 123.251 293.089 75.6047C293.089 114.632 291.197 129.78 297.184 140.55C303.157 151.296 316.975 157.683 348.343 179.087C354.07 182.994 357.946 189.231 358.191 196.159C358.486 204.501 358.125 212.963 357.788 219.116C357.489 224.571 359.519 229.804 363.382 233.667L390.245 260.531C393.19 263.475 394.496 267.699 393.418 271.722C385.626 300.817 361.935 349.126 316.598 351.451C304.485 352.072 293.109 351.401 281.948 350.742C236.792 348.076 195.141 345.617 122.252 429.816ZM327.172 229.22C333.926 228.229 338.196 226.795 336.71 216.664C335.223 206.533 328.543 199.124 321.789 200.115C315.035 201.106 310.765 210.122 312.252 220.252C313.738 230.383 320.418 230.211 327.172 229.22Z" fill="url(#paint9_linear_301_101)"/>
<g filter="url(#filter4_f_301_101)">
<mask id="path-11-inside-1_301_101" fill="white">
<path fill-rule="evenodd" clip-rule="evenodd" d="M122.252 429.816V295.027C120.163 241.739 151.404 123.25 293.089 75.6042C293.089 114.632 291.197 129.78 297.184 140.549C303.157 151.296 316.975 157.682 348.343 179.086C354.07 182.994 357.946 189.231 358.191 196.159C358.486 204.5 358.125 212.963 357.788 219.115C357.489 224.571 359.519 229.803 363.382 233.667L390.245 260.53C393.19 263.475 394.496 267.699 393.418 271.721C385.626 300.816 361.935 349.125 316.598 351.45C304.485 352.072 293.109 351.4 281.948 350.741C236.792 348.076 195.141 345.617 122.252 429.816ZM327.172 229.22C333.926 228.229 338.196 226.795 336.71 216.664C335.223 206.533 328.543 199.124 321.789 200.115C315.035 201.106 310.765 210.122 312.252 220.252C313.738 230.383 320.418 230.211 327.172 229.22Z"/>
</mask>
<path d="M122.252 295.027H126.372V294.946L126.369 294.866L122.252 295.027ZM122.252 429.816H118.132V440.87L125.367 432.512L122.252 429.816ZM293.089 75.6042H297.209V69.872L291.776 71.6991L293.089 75.6042ZM297.184 140.549L293.583 142.551L297.184 140.549ZM348.343 179.086L346.021 182.49L348.343 179.086ZM358.191 196.159L354.074 196.304L358.191 196.159ZM357.788 219.115L353.674 218.89L357.788 219.115ZM363.382 233.667L360.469 236.58L363.382 233.667ZM390.245 260.53L393.159 257.617L390.245 260.53ZM393.418 271.721L397.398 272.787V272.787L393.418 271.721ZM316.598 351.45L316.387 347.336L316.598 351.45ZM281.948 350.741L282.191 346.628L281.948 350.741ZM336.71 216.664L332.633 217.262L336.71 216.664ZM327.172 229.22L327.77 233.296H327.77L327.172 229.22ZM321.789 200.115L322.387 204.191L321.789 200.115ZM312.252 220.252L316.328 219.654L312.252 220.252ZM118.132 295.027V429.816H126.372V295.027H118.132ZM291.776 71.6991C147.955 120.063 115.992 240.535 118.135 295.189L126.369 294.866C124.333 242.943 154.853 126.437 294.402 79.5094L291.776 71.6991ZM300.785 138.548C298.301 134.079 297.282 128.451 297.01 118.56C296.736 108.596 297.209 95.3516 297.209 75.6042H288.969C288.969 94.8844 288.496 108.728 288.773 118.787C289.052 128.919 290.08 136.25 293.583 142.551L300.785 138.548ZM350.666 175.683C342.786 170.306 336.011 165.875 330.204 162.094C324.378 158.3 319.585 155.199 315.583 152.432C307.519 146.857 303.275 143.027 300.785 138.548L293.583 142.551C297.066 148.818 302.717 153.555 310.897 159.21C315.018 162.059 319.935 165.24 325.708 168.999C331.501 172.771 338.217 177.164 346.021 182.49L350.666 175.683ZM362.309 196.013C362.011 187.605 357.326 180.227 350.666 175.683L346.021 182.49C350.814 185.76 353.881 190.856 354.074 196.304L362.309 196.013ZM361.902 219.341C362.24 213.158 362.61 204.546 362.309 196.013L354.074 196.304C354.362 204.455 354.009 212.767 353.674 218.89L361.902 219.341ZM366.295 230.753C363.25 227.708 361.668 223.612 361.902 219.341L353.674 218.89C353.311 225.529 355.788 231.899 360.469 236.58L366.295 230.753ZM393.159 257.617L366.295 230.753L360.469 236.58L387.332 263.443L393.159 257.617ZM397.398 272.787C398.89 267.217 397.049 261.507 393.159 257.617L387.332 263.443C389.331 265.443 390.101 268.18 389.439 270.656L397.398 272.787ZM316.809 355.565C341.05 354.322 359.305 340.759 372.328 324.169C385.327 307.61 393.402 287.708 397.398 272.787L389.439 270.656C385.642 284.83 377.976 303.63 365.847 319.08C353.742 334.5 337.483 346.254 316.387 347.336L316.809 355.565ZM281.706 354.854C292.84 355.511 304.435 356.199 316.809 355.565L316.387 347.336C304.534 347.944 293.379 347.289 282.191 346.628L281.706 354.854ZM125.367 432.512C161.574 390.687 189.676 370.797 213.965 361.555C238.216 352.327 259.099 353.52 281.706 354.854L282.191 346.628C259.642 345.297 237.121 343.928 211.035 353.854C184.987 363.765 155.819 384.745 119.137 427.119L125.367 432.512ZM332.633 217.262C333.32 221.94 332.43 223.14 332.099 223.475C331.482 224.1 330.147 224.619 326.574 225.144L327.77 233.296C330.951 232.83 335.128 232.136 337.963 229.263C341.084 226.101 341.586 221.518 340.786 216.066L332.633 217.262ZM322.387 204.191C323.977 203.958 326.057 204.64 328.165 206.977C330.249 209.289 331.992 212.889 332.633 217.262L340.786 216.066C339.941 210.308 337.601 205.138 334.285 201.46C330.992 197.807 326.355 195.28 321.191 196.038L322.387 204.191ZM316.328 219.654C315.686 215.281 316.321 211.332 317.654 208.52C319.001 205.675 320.797 204.424 322.387 204.191L321.191 196.038C316.027 196.796 312.312 200.548 310.207 204.993C308.087 209.468 307.33 215.093 308.175 220.851L316.328 219.654ZM326.574 225.144C323.112 225.652 320.821 225.714 319.29 225.091C318.331 224.7 316.928 223.747 316.328 219.654L308.175 220.851C309.061 226.889 311.742 230.915 316.183 232.723C320.053 234.298 324.479 233.779 327.77 233.296L326.574 225.144Z" fill="url(#paint10_linear_301_101)" mask="url(#path-11-inside-1_301_101)"/>
</g>
<g filter="url(#filter5_f_301_101)">
<mask id="path-13-inside-2_301_101" fill="white">
<path fill-rule="evenodd" clip-rule="evenodd" d="M122.252 429.816V295.027C120.163 241.739 151.404 123.25 293.089 75.6042C293.089 114.632 291.197 129.78 297.184 140.549C303.157 151.296 316.975 157.682 348.343 179.086C354.07 182.994 357.946 189.231 358.191 196.159C358.486 204.5 358.125 212.963 357.788 219.115C357.489 224.571 359.519 229.803 363.382 233.667L390.245 260.53C393.19 263.475 394.496 267.699 393.418 271.721C385.626 300.816 361.935 349.125 316.598 351.45C304.485 352.072 293.109 351.4 281.948 350.741C236.792 348.076 195.141 345.617 122.252 429.816ZM327.172 229.22C333.926 228.229 338.196 226.795 336.71 216.664C335.223 206.533 328.543 199.124 321.789 200.115C315.035 201.106 310.765 210.122 312.252 220.252C313.738 230.383 320.418 230.211 327.172 229.22Z"/>
</mask>
<path d="M122.252 295.027H126.372V294.946L126.369 294.866L122.252 295.027ZM122.252 429.816H118.132V440.87L125.367 432.512L122.252 429.816ZM293.089 75.6042H297.209V69.872L291.776 71.6991L293.089 75.6042ZM297.184 140.549L293.583 142.551L297.184 140.549ZM348.343 179.086L346.021 182.49L348.343 179.086ZM358.191 196.159L354.074 196.304L358.191 196.159ZM357.788 219.115L353.674 218.89L357.788 219.115ZM363.382 233.667L360.469 236.58L363.382 233.667ZM390.245 260.53L393.159 257.617L390.245 260.53ZM393.418 271.721L397.398 272.787V272.787L393.418 271.721ZM316.598 351.45L316.387 347.336L316.598 351.45ZM281.948 350.741L282.191 346.628L281.948 350.741ZM336.71 216.664L332.633 217.262L336.71 216.664ZM327.172 229.22L327.77 233.296H327.77L327.172 229.22ZM321.789 200.115L322.387 204.191L321.789 200.115ZM312.252 220.252L316.328 219.654L312.252 220.252ZM118.132 295.027V429.816H126.372V295.027H118.132ZM291.776 71.6991C147.955 120.063 115.992 240.535 118.135 295.189L126.369 294.866C124.333 242.943 154.853 126.437 294.402 79.5094L291.776 71.6991ZM300.785 138.548C298.301 134.079 297.282 128.451 297.01 118.56C296.736 108.596 297.209 95.3516 297.209 75.6042H288.969C288.969 94.8844 288.496 108.728 288.773 118.787C289.052 128.919 290.08 136.25 293.583 142.551L300.785 138.548ZM350.666 175.683C342.786 170.306 336.011 165.875 330.204 162.094C324.378 158.3 319.585 155.199 315.583 152.432C307.519 146.857 303.275 143.027 300.785 138.548L293.583 142.551C297.066 148.818 302.717 153.555 310.897 159.21C315.018 162.059 319.935 165.24 325.708 168.999C331.501 172.771 338.217 177.164 346.021 182.49L350.666 175.683ZM362.309 196.013C362.011 187.605 357.326 180.227 350.666 175.683L346.021 182.49C350.814 185.76 353.881 190.856 354.074 196.304L362.309 196.013ZM361.902 219.341C362.24 213.158 362.61 204.546 362.309 196.013L354.074 196.304C354.362 204.455 354.009 212.767 353.674 218.89L361.902 219.341ZM366.295 230.753C363.25 227.708 361.668 223.612 361.902 219.341L353.674 218.89C353.311 225.529 355.788 231.899 360.469 236.58L366.295 230.753ZM393.159 257.617L366.295 230.753L360.469 236.58L387.332 263.443L393.159 257.617ZM397.398 272.787C398.89 267.217 397.049 261.507 393.159 257.617L387.332 263.443C389.331 265.443 390.101 268.18 389.439 270.656L397.398 272.787ZM316.809 355.565C341.05 354.322 359.305 340.759 372.328 324.169C385.327 307.61 393.402 287.708 397.398 272.787L389.439 270.656C385.642 284.83 377.976 303.63 365.847 319.08C353.742 334.5 337.483 346.254 316.387 347.336L316.809 355.565ZM281.706 354.854C292.84 355.511 304.435 356.199 316.809 355.565L316.387 347.336C304.534 347.944 293.379 347.289 282.191 346.628L281.706 354.854ZM125.367 432.512C161.574 390.687 189.676 370.797 213.965 361.555C238.216 352.327 259.099 353.52 281.706 354.854L282.191 346.628C259.642 345.297 237.121 343.928 211.035 353.854C184.987 363.765 155.819 384.745 119.137 427.119L125.367 432.512ZM332.633 217.262C333.32 221.94 332.43 223.14 332.099 223.475C331.482 224.1 330.147 224.619 326.574 225.144L327.77 233.296C330.951 232.83 335.128 232.136 337.963 229.263C341.084 226.101 341.586 221.518 340.786 216.066L332.633 217.262ZM322.387 204.191C323.977 203.958 326.057 204.64 328.165 206.977C330.249 209.289 331.992 212.889 332.633 217.262L340.786 216.066C339.941 210.308 337.601 205.138 334.285 201.46C330.992 197.807 326.355 195.28 321.191 196.038L322.387 204.191ZM316.328 219.654C315.686 215.281 316.321 211.332 317.654 208.52C319.001 205.675 320.797 204.424 322.387 204.191L321.191 196.038C316.027 196.796 312.312 200.548 310.207 204.993C308.087 209.468 307.33 215.093 308.175 220.851L316.328 219.654ZM326.574 225.144C323.112 225.652 320.821 225.714 319.29 225.091C318.331 224.7 316.928 223.747 316.328 219.654L308.175 220.851C309.061 226.889 311.742 230.915 316.183 232.723C320.053 234.298 324.479 233.779 327.77 233.296L326.574 225.144Z" fill="url(#paint11_radial_301_101)" mask="url(#path-13-inside-2_301_101)"/>
</g>
<g filter="url(#filter6_f_301_101)">
<path d="M327.471 231.258C330.75 230.777 334.217 230.127 336.497 227.816C338.921 225.361 339.52 221.624 338.748 216.365C337.954 210.953 335.763 206.175 332.755 202.839C329.758 199.515 325.761 197.45 321.49 198.076C317.22 198.703 313.984 201.83 312.068 205.874C310.146 209.934 309.419 215.14 310.213 220.552C311.028 226.103 313.389 229.361 316.96 230.815C320.245 232.152 324.137 231.747 327.471 231.258Z" stroke="url(#paint12_linear_301_101)" stroke-width="4.12"/>
</g>
</g>
</g>
</g>
<defs>
<filter id="filter0_f_301_101" x="41.76" y="41.76" width="428.48" height="428.48" filterUnits="userSpaceOnUse" color-interpolation-filters="sRGB">
<feFlood flood-opacity="0" result="BackgroundImageFix"/>
<feBlend mode="normal" in="SourceGraphic" in2="BackgroundImageFix" result="shape"/>
<feGaussianBlur stdDeviation="4.12" result="effect1_foregroundBlur_301_101"/>
</filter>
<filter id="filter1_f_301_101" x="-176.6" y="-143.64" width="943.48" height="943.48" filterUnits="userSpaceOnUse" color-interpolation-filters="sRGB">
<feFlood flood-opacity="0" result="BackgroundImageFix"/>
<feBlend mode="normal" in="SourceGraphic" in2="BackgroundImageFix" result="shape"/>
<feGaussianBlur stdDeviation="123.6" result="effect1_foregroundBlur_301_101"/>
</filter>
<filter id="filter2_f_301_101" x="93.2599" y="71.4847" width="511.45" height="644.793" filterUnits="userSpaceOnUse" color-interpolation-filters="sRGB">
<feFlood flood-opacity="0" result="BackgroundImageFix"/>
<feBlend mode="normal" in="SourceGraphic" in2="BackgroundImageFix" result="shape"/>
<feGaussianBlur stdDeviation="10.3" result="effect1_foregroundBlur_301_101"/>
</filter>
<filter id="filter3_f_301_101" x="117.156" y="321.096" width="263.268" height="160.268" filterUnits="userSpaceOnUse" color-interpolation-filters="sRGB">
<feFlood flood-opacity="0" result="BackgroundImageFix"/>
<feBlend mode="normal" in="SourceGraphic" in2="BackgroundImageFix" result="shape"/>
<feGaussianBlur stdDeviation="2.472" result="effect1_foregroundBlur_301_101"/>
</filter>
<filter id="filter4_f_301_101" x="117.212" y="70.6602" width="281.524" height="364.099" filterUnits="userSpaceOnUse" color-interpolation-filters="sRGB">
<feFlood flood-opacity="0" result="BackgroundImageFix"/>
<feBlend mode="normal" in="SourceGraphic" in2="BackgroundImageFix" result="shape"/>
<feGaussianBlur stdDeviation="2.472" result="effect1_foregroundBlur_301_101"/>
</filter>
<filter id="filter5_f_301_101" x="117.212" y="70.6602" width="281.524" height="364.099" filterUnits="userSpaceOnUse" color-interpolation-filters="sRGB">
<feFlood flood-opacity="0" result="BackgroundImageFix"/>
<feBlend mode="normal" in="SourceGraphic" in2="BackgroundImageFix" result="shape"/>
<feGaussianBlur stdDeviation="2.472" result="effect1_foregroundBlur_301_101"/>
</filter>
<filter id="filter6_f_301_101" x="302.892" y="190.96" width="43.1751" height="47.7662" filterUnits="userSpaceOnUse" color-interpolation-filters="sRGB">
<feFlood flood-opacity="0" result="BackgroundImageFix"/>
<feBlend mode="normal" in="SourceGraphic" in2="BackgroundImageFix" result="shape"/>
<feGaussianBlur stdDeviation="2.472" result="effect1_foregroundBlur_301_101"/>
</filter>
<linearGradient id="paint0_linear_301_101" x1="239.52" y1="31.46" x2="336.71" y2="466.063" gradientUnits="userSpaceOnUse">
<stop stop-color="#3195FD"/>
<stop offset="1" stop-color="#0339CF"/>
</linearGradient>
<linearGradient id="paint1_linear_301_101" x1="239.52" y1="31.46" x2="336.71" y2="466.063" gradientUnits="userSpaceOnUse">
<stop stop-color="#FF5501"/>
<stop offset="1" stop-color="#FF2101"/>
</linearGradient>
<linearGradient id="paint2_linear_301_101" x1="429.128" y1="82.8724" x2="274.407" y2="324.042" gradientUnits="userSpaceOnUse">
<stop stop-color="#86CCFF"/>
<stop offset="1" stop-color="#6CC1FF" stop-opacity="0"/>
</linearGradient>
<linearGradient id="paint3_linear_301_101" x1="422.553" y1="82.8723" x2="271.34" y2="266.957" gradientUnits="userSpaceOnUse">
<stop stop-color="white"/>
<stop offset="1" stop-color="white" stop-opacity="0"/>
</linearGradient>
<radialGradient id="paint4_radial_301_101" cx="0" cy="0" r="1" gradientUnits="userSpaceOnUse" gradientTransform="translate(295.14 328.1) rotate(90) scale(224.54)">
<stop/>
<stop offset="1" stop-color="#3194FD" stop-opacity="0"/>
</radialGradient>
<linearGradient id="paint5_linear_301_101" x1="266.3" y1="72.6601" x2="350.76" y2="245.7" gradientUnits="userSpaceOnUse">
<stop stop-color="#0B41BB" stop-opacity="0"/>
<stop offset="1" stop-color="#0B41BD"/>
</linearGradient>
<linearGradient id="paint6_linear_301_101" x1="282.78" y1="344.58" x2="426.412" y2="461.119" gradientUnits="userSpaceOnUse">
<stop stop-color="#005AFF" stop-opacity="0.45"/>
<stop offset="1" stop-color="white"/>
</linearGradient>
<linearGradient id="paint7_linear_301_101" x1="-143.64" y1="750.4" x2="168.338" y2="264.49" gradientUnits="userSpaceOnUse">
<stop stop-color="white" stop-opacity="0.4"/>
<stop offset="1" stop-color="#005AFF" stop-opacity="0.35"/>
</linearGradient>
<radialGradient id="paint8_radial_301_101" cx="0" cy="0" r="1" gradientUnits="userSpaceOnUse" gradientTransform="translate(299.26 344.58) rotate(122.347) scale(73.1518 73.1518)">
<stop stop-color="white"/>
<stop offset="1" stop-color="white" stop-opacity="0"/>
</radialGradient>
<linearGradient id="paint9_linear_301_101" x1="299.258" y1="85.0206" x2="15.8888" y2="279.635" gradientUnits="userSpaceOnUse">
<stop stop-color="white"/>
<stop offset="1" stop-color="#B1CDFF"/>
</linearGradient>
<linearGradient id="paint10_linear_301_101" x1="330.158" y1="107.68" x2="301.318" y2="192.14" gradientUnits="userSpaceOnUse">
<stop stop-color="#9FCDFF"/>
<stop offset="1" stop-color="white" stop-opacity="0"/>
</linearGradient>
<radialGradient id="paint11_radial_301_101" cx="0" cy="0" r="1" gradientUnits="userSpaceOnUse" gradientTransform="translate(293.08 350.76) rotate(-114.057) scale(126.334 172.394)">
<stop stop-color="#8DC4FF"/>
<stop offset="1" stop-color="white" stop-opacity="0"/>
</radialGradient>
<linearGradient id="paint12_linear_301_101" x1="328.677" y1="201.811" x2="327.495" y2="209.232" gradientUnits="userSpaceOnUse">
<stop stop-color="#9FCDFF"/>
<stop offset="1" stop-color="white" stop-opacity="0"/>
</linearGradient>
<clipPath id="clip0_301_101">
<rect width="412" height="412" fill="white" transform="translate(50 50)"/>
</clipPath>
<clipPath id="clip1_301_101">
<rect width="412" height="412" fill="white" transform="translate(50 50)"/>
</clipPath>
</defs>
</svg>
